<?xml version="1.0" encoding="iso-8859-1"?>
<!-- Generator: Adobe Illustrator 19.0.0, SVG Export Plug-In . SVG Version: 6.00 Build 0)  -->
<svg version="1.1" id="Layer_1" xmlns="http://www.w3.org/2000/svg" xmlns:xlink="http://www.w3.org/1999/xlink" x="0px" y="0px"
	 viewBox="0 0 488 488" style="enable-background:new 0 0 488 488;" xml:space="preserve">
<g transform="translate(0 -540.36)">
	<g>
		<g>
			<path d="M478,857.06H335.5v-72.7c0-5.5-4.5-10-10-10H162.4c-5.5,0-10,4.5-10,10v72.7H10c-5.5,0-10,4.5-10,10v92.8
				c0,5.5,4.5,10,10,10h468c5.5,0,10-4.5,10-10v-92.8C488,861.56,483.5,857.06,478,857.06z M468,949.86H20v-72.8h142.5
				c5.5,0,10-4.5,10-10v-72.7h143.1v72.7c0,5.5,4.5,10,10,10H468V949.86z"/>
			<path d="M177,660.26l31.5,22.8l-11.5,36.4c-1.3,4.1,0.1,8.6,3.6,11.1s8.2,2.6,11.7,0.1l31.6-22.2l31.6,22.2
				c1.8,1.2,3.8,1.8,5.8,1.8v0c2.1,0,4.2-0.6,5.9-1.9c3.4-2.5,4.9-7,3.6-11.1l-11.5-36.4l31.5-22.8c3.5-2.6,4.9-7.1,3.6-11.2
				c-1.3-4.1-5.2-6.9-9.5-6.9h-39.3l-12.2-36.5c-1.4-4.1-5.2-6.8-9.5-6.8c-4.3,0-8.1,2.7-9.5,6.8l-12.2,36.5h-39.3
				c-4.3,0-8.2,2.8-9.5,6.9C172,653.16,173.5,657.76,177,660.26z M229.6,662.16c4.3,0,8.1-2.7,9.5-6.8l5-14.9l5,14.9
				c1.4,4.1,5.2,6.8,9.5,6.8h15.6l-12.4,9c-3.5,2.5-5,7-3.7,11.1l4.8,15l-13.1-9.2c-1.8-1.2-3.8-1.8-5.8-1.8s-4,0.6-5.6,1.8
				l-13.1,9.2l4.8-15c1.3-4.1-0.2-8.6-3.7-11.1l-12.4-9H229.6z"/>
		</g>
	</g>
</g>
<g>
</g>
<g>
</g>
<g>
</g>
<g>
</g>
<g>
</g>
<g>
</g>
<g>
</g>
<g>
</g>
<g>
</g>
<g>
</g>
<g>
</g>
<g>
</g>
<g>
</g>
<g>
</g>
<g>
</g>
</svg>
