<svg width="688" height="232" viewBox="0 0 688 232" fill="none" xmlns="http://www.w3.org/2000/svg">
<path d="M71.892 4.41926L72.6974 5.68476L71.892 4.41927L71.6182 4.59353L71.56 4.63056L71.5055 4.67277L19.6507 44.8039C15.5425 47.445 13.2647 51.6964 13.2647 56.5906C13.2647 59.716 14.3793 62.4097 15.6951 64.515L16.9671 63.72L15.6951 64.515L15.8733 64.8002L15.9112 64.8608L15.9547 64.9175L29.4598 82.5428C29.4611 82.5444 29.4623 82.546 29.4635 82.5476C31.8002 85.6461 35.561 88.6412 40.7976 88.6412C44.2465 88.6412 47.2184 87.3259 49.5417 85.4057L66.573 72.3526V152.088H21.8235C10.5992 152.088 1.5 161.187 1.5 172.412V184.176C1.5 195.401 10.5992 204.5 21.8235 204.5L163 204.5C174.224 204.5 183.324 195.401 183.324 184.176V172.412C183.324 161.187 174.224 152.088 163 152.088H124.349V121.62H125.353H142.482C163.051 121.62 180.335 117.163 193.32 107.203L193.344 107.184L193.354 107.176L193.378 107.158C206.889 96.608 213.159 81.1239 213.159 62.2377C213.159 43.1902 206.811 27.5408 193.242 16.7111C180.256 6.22653 162.995 1.5 142.482 1.5H125.353H123.853V3V11.823C123.251 9.55718 122.086 7.41264 120.261 5.58803C117.416 2.74229 113.792 1.5 110.144 1.5H81.9083C78.3177 1.5 74.9175 2.49399 71.892 4.41926ZM125.353 73.3306H124.349V50.0153H125.353H141.353C146.98 50.0153 149.567 51.4867 150.866 52.8983L150.965 53.0065L150.987 53.0295L151.009 53.0516L151.113 53.1555C152.799 54.8417 154.027 57.3803 154.027 61.7859C154.027 66.6903 152.704 69.1494 151.212 70.5582C149.446 72.0768 146.505 73.3306 141.353 73.3306H125.353Z" fill="white" stroke="black" stroke-width="3"/>
<path fill-rule="evenodd" clip-rule="evenodd" d="M75.1318 160.647V55.0094L44.1859 78.7271C43.1318 79.6306 42.0024 80.0824 40.7977 80.0824C39.1412 80.0824 37.6353 79.1788 36.28 77.3718L22.953 59.9788C22.2 58.7741 21.8236 57.6447 21.8236 56.5906C21.8236 54.4824 22.7271 52.9012 24.5341 51.8471L76.4871 11.64C78.1436 10.5859 79.9506 10.0588 81.9083 10.0588H110.144C111.8 10.0588 113.155 10.5859 114.209 11.64C115.264 12.6941 115.791 14.0494 115.791 15.7059V160.647H163C169.497 160.647 174.765 165.914 174.765 172.412V184.176C174.765 190.674 169.497 195.941 163 195.941L21.8236 195.941C15.3261 195.941 10.0588 190.674 10.0588 184.176V172.412C10.0588 165.914 15.3261 160.647 21.8236 160.647H75.1318Z" fill="black"/>
<path fill-rule="evenodd" clip-rule="evenodd" d="M22.9529 59.9788C22.2 58.7741 21.8235 57.6447 21.8235 56.5906C21.8235 54.4824 22.7271 52.9012 24.5341 51.8471L76.4871 11.64C78.1435 10.5859 79.9506 10.0588 81.9083 10.0588H110.144C111.8 10.0588 113.155 10.5859 114.209 11.64C115.264 12.6941 115.791 14.0494 115.791 15.7059V160.647H163C169.497 160.647 174.765 165.914 174.765 172.412V184.176C174.765 190.674 169.497 195.941 163 195.941L21.8235 195.941C15.3261 195.941 10.0588 190.674 10.0588 184.176V172.412C10.0588 165.914 15.3261 160.647 21.8235 160.647H75.1318V55.0094L44.1859 78.7271C43.1318 79.6306 42.0024 80.0824 40.7976 80.0824C39.1412 80.0824 37.6353 79.1788 36.28 77.3718L22.9529 59.9788ZM30.6577 81.64C32.8256 84.5164 36.1919 87.1412 40.7976 87.1412C43.8564 87.1412 46.5067 85.9749 48.6069 84.2323L68.073 69.313V153.588H21.8235C11.4276 153.588 3 162.016 3 172.412V184.176C3 194.572 11.4276 203 21.8235 203L163 203C173.396 203 181.824 194.572 181.824 184.176V172.412C181.824 162.016 173.396 153.588 163 153.588H122.849V15.7059C122.849 12.4053 121.732 9.1795 119.201 6.64869C116.67 4.11781 113.444 3 110.144 3H81.9083C78.6039 3 75.4829 3.91215 72.6974 5.68476L72.4235 5.85901L20.5156 46.0312C16.8106 48.389 14.7647 52.176 14.7647 56.5906C14.7647 59.3524 15.7495 61.7719 16.9671 63.72L17.1453 64.0052L30.6577 81.64Z" fill="white"/>
<path fill-rule="evenodd" clip-rule="evenodd" d="M132.412 113.061H142.482C161.908 113.061 177.118 108.845 188.111 100.412C199.104 91.8282 204.6 79.1036 204.6 62.2377C204.6 45.2212 199.028 32.2706 187.885 23.3859C176.892 14.5012 161.758 10.0588 142.482 10.0588H132.412V41.4565H141.353C148.431 41.4565 153.701 43.3388 157.165 47.1036C160.779 50.7177 162.586 55.6118 162.586 61.7859C162.586 68.4118 160.704 73.4565 156.939 76.92C153.174 80.233 147.979 81.8894 141.353 81.8894H132.412V113.061Z" fill="black"/>
<path fill-rule="evenodd" clip-rule="evenodd" d="M125.353 120.12V74.8306H141.353C146.772 74.8306 150.103 73.5023 152.216 71.6729C154.101 69.9077 155.527 67.0022 155.527 61.7859C155.527 57.068 154.196 54.1176 152.173 52.0949L152.069 51.9909L151.97 51.8828C150.294 50.0609 147.239 48.5153 141.353 48.5153H125.353V3H142.482C162.779 3 179.667 7.67698 192.304 17.8814C205.447 28.3698 211.659 43.5457 211.659 62.2377C211.659 80.7708 205.524 95.7708 192.455 105.975L192.431 105.994L192.407 106.012C179.772 115.705 162.851 120.12 142.482 120.12H125.353ZM187.885 23.3859C176.892 14.5012 161.758 10.0588 142.482 10.0588H132.412V41.4565H141.353C148.431 41.4565 153.701 43.3388 157.165 47.1035C160.779 50.7177 162.586 55.6118 162.586 61.7859C162.586 68.4118 160.704 73.4565 156.939 76.92C153.174 80.233 147.979 81.8894 141.353 81.8894H132.412V113.061H142.482C161.908 113.061 177.118 108.845 188.111 100.412C199.104 91.8282 204.6 79.1035 204.6 62.2377C204.6 45.2212 199.028 32.2706 187.885 23.3859Z" fill="white"/>
<path d="M263.264 197.44C249.728 197.44 239.072 194.128 231.296 187.504C223.52 180.88 219.392 171.136 218.912 158.272C218.816 155.488 218.768 151.36 218.768 145.888C218.768 140.32 218.816 136.144 218.912 133.36C219.392 120.688 223.568 110.944 231.44 104.128C239.408 97.216 250.016 93.76 263.264 93.76C276.512 93.76 287.12 97.216 295.088 104.128C303.056 110.944 307.232 120.688 307.616 133.36C307.808 138.928 307.904 143.104 307.904 145.888C307.904 148.576 307.808 152.704 307.616 158.272C307.136 171.136 303.008 180.88 295.232 187.504C287.456 194.128 276.8 197.44 263.264 197.44ZM263.264 176.704C268.544 176.704 272.72 175.12 275.792 171.952C278.96 168.784 280.64 163.936 280.832 157.408C281.024 151.84 281.12 147.904 281.12 145.6C281.12 143.104 281.024 139.168 280.832 133.792C280.64 127.264 278.96 122.416 275.792 119.248C272.624 116.08 268.448 114.496 263.264 114.496C258.08 114.496 253.904 116.08 250.736 119.248C247.664 122.416 245.984 127.264 245.696 133.792C245.6 136.48 245.552 140.416 245.552 145.6C245.552 150.688 245.6 154.624 245.696 157.408C245.984 163.936 247.664 168.784 250.736 171.952C253.808 175.12 257.984 176.704 263.264 176.704ZM328.196 196C327.236 196 326.372 195.664 325.604 194.992C324.932 194.224 324.596 193.36 324.596 192.4V98.8C324.596 97.744 324.932 96.88 325.604 96.208C326.372 95.536 327.236 95.2 328.196 95.2H365.636C379.748 95.2 390.692 98.56 398.468 105.28C406.244 112 410.324 121.744 410.708 134.512C410.804 137.296 410.852 140.992 410.852 145.6C410.852 150.208 410.804 153.856 410.708 156.544C410.228 169.888 406.244 179.824 398.756 186.352C391.364 192.784 380.564 196 366.356 196H328.196ZM365.636 175.264C371.972 175.264 376.628 173.776 379.604 170.8C382.58 167.728 384.164 162.88 384.356 156.256C384.548 153.472 384.644 149.872 384.644 145.456C384.644 141.04 384.548 137.488 384.356 134.8C384.164 128.368 382.436 123.616 379.172 120.544C376.004 117.472 371.252 115.936 364.916 115.936H350.516V175.264H365.636ZM431.274 196C430.314 196 429.45 195.664 428.682 194.992C428.01 194.224 427.674 193.36 427.674 192.4V98.8C427.674 97.744 428.01 96.88 428.682 96.208C429.45 95.536 430.314 95.2 431.274 95.2H450.57C451.626 95.2 452.49 95.536 453.162 96.208C453.93 96.88 454.314 97.744 454.314 98.8V192.4C454.314 193.456 453.93 194.32 453.162 194.992C452.49 195.664 451.626 196 450.57 196H431.274ZM516.697 197.44C503.161 197.44 492.553 194.128 484.873 187.504C477.289 180.88 473.497 170.896 473.497 157.552V98.8C473.497 97.744 473.833 96.88 474.505 96.208C475.273 95.536 476.137 95.2 477.097 95.2H495.673C496.729 95.2 497.593 95.536 498.265 96.208C499.033 96.88 499.417 97.744 499.417 98.8V157.408C499.417 163.648 500.857 168.352 503.737 171.52C506.713 174.592 510.985 176.128 516.553 176.128C522.025 176.128 526.249 174.544 529.225 171.376C532.201 168.208 533.689 163.552 533.689 157.408V98.8C533.689 97.744 534.025 96.88 534.697 96.208C535.465 95.536 536.329 95.2 537.289 95.2H556.009C557.065 95.2 557.929 95.536 558.601 96.208C559.273 96.88 559.609 97.744 559.609 98.8V157.552C559.609 170.896 555.769 180.88 548.089 187.504C540.505 194.128 530.041 197.44 516.697 197.44ZM582.305 196C581.345 196 580.481 195.664 579.713 194.992C579.041 194.224 578.705 193.36 578.705 192.4V98.8C578.705 97.744 579.041 96.88 579.713 96.208C580.481 95.536 581.345 95.2 582.305 95.2H597.857C600.161 95.2 601.841 96.256 602.897 98.368L628.241 143.728L653.585 98.368C654.641 96.256 656.321 95.2 658.625 95.2H674.033C675.089 95.2 675.953 95.536 676.625 96.208C677.393 96.88 677.777 97.744 677.777 98.8V192.4C677.777 193.456 677.393 194.32 676.625 194.992C675.953 195.664 675.089 196 674.033 196H656.897C655.841 196 654.929 195.664 654.161 194.992C653.489 194.32 653.153 193.456 653.153 192.4V138.4L637.025 168.496C635.777 170.704 634.097 171.808 631.985 171.808H624.497C623.249 171.808 622.241 171.52 621.473 170.944C620.705 170.368 620.033 169.552 619.457 168.496L603.185 138.4V192.4C603.185 193.36 602.849 194.224 602.177 194.992C601.505 195.664 600.641 196 599.585 196H582.305Z" fill="black"/>
</svg>
